<?xml version="1.0" encoding="UTF-8"?>
<svg version="1.1" xmlns="http://www.w3.org/2000/svg" width="248" height="244">
<path d="M0 0 C0.28873846 4.80749528 -0.54360835 7.99393146 -2.5 12.375 C-2.89940796 13.27085815 -2.89940796 13.27085815 -3.30688477 14.18481445 C-4.18635566 16.13223226 -5.08853784 18.06735825 -6 20 C-6.31565918 20.6698291 -6.63131836 21.3396582 -6.95654297 22.02978516 C-13.0022616 34.72851349 -19.8977857 46.21604324 -29 57 C-29.70769531 57.84304687 -30.41539062 58.68609375 -31.14453125 59.5546875 C-36.48309473 65.75494861 -36.48309473 65.75494861 -39.109375 67 C-41.55388589 68.29296444 -41.80379296 69.53336869 -43 72 C-44.65569269 73.82014702 -46.37175771 75.58611796 -48.125 77.3125 C-48.6192749 77.79960449 -49.1135498 78.28670898 -49.62280273 78.78857422 C-52.9714697 82.06396025 -56.39831095 85.21605467 -59.97265625 88.2421875 C-61.49485107 89.5620096 -62.97545409 90.93004772 -64.43359375 92.3203125 C-69.4726013 97.09087977 -73.29936733 100.13261057 -80 102 C-81.01513672 102.30164063 -81.01513672 102.30164063 -82.05078125 102.609375 C-83.69366901 103.09664431 -85.3459637 103.55203183 -87 104 C-83.535 103.505 -83.535 103.505 -80 103 C-80.6484375 104.890625 -80.6484375 104.890625 -82 107 C-84.6015625 108.046875 -84.6015625 108.046875 -87.625 108.75 C-89.12933594 109.11351562 -89.12933594 109.11351562 -90.6640625 109.484375 C-91.43492188 109.65453125 -92.20578125 109.8246875 -93 110 C-90.36 109.67 -87.72 109.34 -85 109 C-85.125 110.6875 -85.125 110.6875 -86 113 C-87.98260426 114.68732277 -89.9832342 116.35366057 -92 118 C-92.29648438 118.6290625 -92.59296875 119.258125 -92.8984375 119.90625 C-94.36032082 122.6848651 -96.22527829 124.05672188 -98.6875 126 C-99.68007812 126.78761719 -100.67265625 127.57523437 -101.6953125 128.38671875 C-102.23188477 128.80872559 -102.76845703 129.23073242 -103.32128906 129.66552734 C-105.04219172 131.03353984 -106.73741968 132.42879173 -108.4296875 133.83203125 C-142.51381155 161.92262748 -142.51381155 161.92262748 -160 162 C-160 163.32 -160 164.64 -160 166 C-161.3125 167.921875 -161.3125 167.921875 -163 169.75 C-163.8353125 170.67039063 -163.8353125 170.67039063 -164.6875 171.609375 C-165.120625 172.06828125 -165.55375 172.5271875 -166 173 C-166.99 172.67 -167.98 172.34 -169 172 C-168.95617187 172.56847656 -168.91234375 173.13695312 -168.8671875 173.72265625 C-168.88107077 177.88069451 -169.17105472 180.16957446 -172.1875 183.19140625 C-174.74649048 185.03254039 -177.13083501 186.68916743 -180 188 C-180.99 187.67 -181.98 187.34 -183 187 C-180.33043367 173.96456441 -180.33043367 173.96456441 -176.5 171.1875 C-174 170 -174 170 -172 170 C-171.896875 168.9275 -171.79375 167.855 -171.6875 166.75 C-171.02636654 163.14381749 -170.65761199 161.46075184 -168 159 C-166.68 159 -165.36 159 -164 159 C-164.06316406 157.72511719 -164.12632812 156.45023438 -164.19140625 155.13671875 C-164.18386357 149.62301959 -162.75619121 144.97691476 -160.9375 139.8125 C-160.62022949 138.89122314 -160.30295898 137.96994629 -159.97607422 137.02075195 C-157.24926431 129.30737098 -153.9566602 122.16940288 -150 115 C-149.24397027 113.57725909 -148.48880477 112.15405871 -147.734375 110.73046875 C-146.94974387 109.27765751 -146.1633127 107.82581686 -145.375 106.375 C-144.83480225 105.36119263 -144.83480225 105.36119263 -144.28369141 104.3269043 C-142.01126953 100.24182 -139.74894513 97.88235479 -136 95 C-134.9349121 93.05319017 -134.9349121 93.05319017 -134.3125 90.9375 C-132.10273548 85.40850412 -128.29738459 81.60647475 -124.2421875 77.3828125 C-121.89067727 75.01609229 -121.89067727 75.01609229 -120 72 C-119.34 72 -118.68 72 -118 72 C-116.6559907 70.00715862 -115.32458708 68.00580329 -114 66 C-112.3540349 64.31288577 -110.68762851 62.6454378 -109 61 C-108.4225 60.21625 -107.845 59.4325 -107.25 58.625 C-104.5411689 55.46469705 -101.48192588 53.19294414 -98.16796875 50.6953125 C-95.83694856 48.94320881 -95.83694856 48.94320881 -93.375 46.375 C-90.45358871 43.45358871 -87.44918499 41.27776367 -84 39 C-83.34 39 -82.68 39 -82 39 C-82 38.34 -82 37.68 -82 37 C-80.09375 35.44921875 -80.09375 35.44921875 -77.5 33.6875 C-76.58605469 33.06617188 -75.67210937 32.44484375 -74.73046875 31.8046875 C-69.5644813 28.39025803 -64.33522594 25.17484145 -58.9519043 22.11303711 C-57.62937703 21.35889054 -56.3092901 20.60045115 -54.99145508 19.83813477 C-38.7216653 10.43362099 -19.35957685 0 0 0 Z M-50 68 C-50 68.33 -50 68.66 -50 69 C-48.02 69 -46.04 69 -44 69 C-44 68.67 -44 68.34 -44 68 C-45.98 68 -47.96 68 -50 68 Z M-61 69 C-61 69.33 -61 69.66 -61 70 C-59.02 70 -57.04 70 -55 70 C-55 69.67 -55 69.34 -55 69 C-56.98 69 -58.96 69 -61 69 Z M-68 70 C-68 70.33 -68 70.66 -68 71 C-66.35 71 -64.7 71 -63 71 C-63 70.67 -63 70.34 -63 70 C-64.65 70 -66.3 70 -68 70 Z M-99 78 C-99.66 79.32 -100.32 80.64 -101 82 C-100.01 81.34 -99.02 80.68 -98 80 C-98.33 79.34 -98.66 78.68 -99 78 Z M-135 99 C-134 102 -134 102 -134 102 Z M-102 118 C-102 118.33 -102 118.66 -102 119 C-100.35 119 -98.7 119 -97 119 C-97 118.67 -97 118.34 -97 118 C-98.65 118 -100.3 118 -102 118 Z M-177 177 C-177 177.66 -177 178.32 -177 179 C-176.01 178.67 -175.02 178.34 -174 178 C-174.99 177.67 -175.98 177.34 -177 177 Z " fill="#2D60E8" transform="translate(210,25)"/>
<path d="M0 0 C0 3.96 0 7.92 0 12 C-1.32 12.66 -2.64 13.32 -4 14 C-6.10190299 17.2888703 -6.10190299 17.2888703 -7 21 C-6.34 21.33 -5.68 21.66 -5 22 C-5 22.66 -5 23.32 -5 24 C-0.88088642 23.04943533 3.21127435 21.89436282 7 20 C5.79618552 22.49361571 4.54571278 24.68143083 3 27 C3.3121764 29.64632287 3.3121764 29.64632287 4 32 C1.50935112 32.68707555 -0.37886292 33 -3 33 C-4.485 33.495 -4.485 33.495 -6 34 C-6.103125 34.763125 -6.20625 35.52625 -6.3125 36.3125 C-7.08448165 39.33024646 -7.77394639 39.93883925 -10 42 C-13.34633494 46.3305511 -14.56343578 49.54294724 -15 55 C-13.68 55.33 -12.36 55.66 -11 56 C-11.495 54.02 -11.495 54.02 -12 52 C-9.98177083 52.29296875 -7.96354167 52.5859375 -5.9453125 52.87890625 C-3.91859333 53.1684297 -3.91859333 53.1684297 -2 52 C-2 52.66 -2 53.32 -2 54 C-1.34 54 -0.68 54 0 54 C0 54.66 0 55.32 0 56 C3.96 56 7.92 56 12 56 C12 56.66 12 57.32 12 58 C11.34 58 10.68 58 10 58 C9.96326172 59.05380859 9.96326172 59.05380859 9.92578125 60.12890625 C8.54508063 64.41082591 5.67372396 66.24258169 2.1875 68.9375 C1.12909912 69.7730542 1.12909912 69.7730542 0.04931641 70.62548828 C-35.37812133 98.25196579 -35.37812133 98.25196579 -51 98 C-51 99.32 -51 100.64 -51 102 C-52.3125 103.921875 -52.3125 103.921875 -54 105.75 C-54.556875 106.36359375 -55.11375 106.9771875 -55.6875 107.609375 C-56.3371875 108.29773438 -56.3371875 108.29773438 -57 109 C-58.485 108.505 -58.485 108.505 -60 108 C-59.95617188 108.56847656 -59.91234375 109.13695312 -59.8671875 109.72265625 C-59.88107077 113.88069451 -60.17105472 116.16957446 -63.1875 119.19140625 C-65.74649048 121.03254039 -68.13083501 122.68916743 -71 124 C-71.99 123.67 -72.98 123.34 -74 123 C-71.33043367 109.96456441 -71.33043367 109.96456441 -67.5 107.1875 C-65 106 -65 106 -63 106 C-62.896875 104.9275 -62.79375 103.855 -62.6875 102.75 C-62.02636654 99.14381749 -61.65761199 97.46075184 -59 95 C-57.68 95 -56.36 95 -55 95 C-55.06316406 93.72511719 -55.12632813 92.45023437 -55.19140625 91.13671875 C-55.18386357 85.62301959 -53.75619121 80.97691476 -51.9375 75.8125 C-51.62022949 74.89122314 -51.30295898 73.96994629 -50.97607422 73.02075195 C-48.24926431 65.30737098 -44.9566602 58.16940288 -41 51 C-40.24397027 49.57725909 -39.48880477 48.15405871 -38.734375 46.73046875 C-37.94974387 45.27765751 -37.1633127 43.82581686 -36.375 42.375 C-35.83480225 41.36119263 -35.83480225 41.36119263 -35.28369141 40.3269043 C-33.01126953 36.24182 -30.74894513 33.88235479 -27 31 C-25.9349121 29.05319017 -25.9349121 29.05319017 -25.3125 26.9375 C-23.10273548 21.40850412 -19.29738459 17.60647475 -15.2421875 13.3828125 C-12.89067727 11.01609229 -12.89067727 11.01609229 -11 8 C-10.34 8 -9.68 8 -9 8 C-7.65668346 6.00669158 -6.32405988 4.00615134 -5 2 C-2 0 -2 0 0 0 Z M-26 35 C-25 38 -25 38 -25 38 Z M-68 113 C-68 113.66 -68 114.32 -68 115 C-67.01 114.67 -66.02 114.34 -65 114 C-65.99 113.67 -66.98 113.34 -68 113 Z " fill="#2D53E7" transform="translate(101,89)"/>
<path d="M0 0 C0.28873846 4.80749528 -0.54360835 7.99393146 -2.5 12.375 C-2.76627197 12.97223877 -3.03254395 13.56947754 -3.30688477 14.18481445 C-4.18635566 16.13223226 -5.08853784 18.06735825 -6 20 C-6.31565918 20.6698291 -6.63131836 21.3396582 -6.95654297 22.02978516 C-12.60174793 33.88725465 -18.90358112 44.74382313 -27.30078125 54.90625 C-29.12938489 57.0926616 -29.12938489 57.0926616 -31 60 C-33.32481174 61.01965427 -35.65794699 62.02059602 -38 63 C-38.33 63.66 -38.66 64.32 -39 65 C-43.4873989 66.58378785 -47.27047257 67.10998901 -52 67 C-52.99 67.495 -52.99 67.495 -54 68 C-56.3329866 68.04022391 -58.66706666 68.04320247 -61 68 C-61.33 68.99 -61.66 69.98 -62 71 C-63.98 70.67 -65.96 70.34 -68 70 C-68 70.66 -68 71.32 -68 72 C-68.99 72 -69.98 72 -71 72 C-71 71.01 -71 70.02 -71 69 C-74.19902639 68.91113816 -76.92677456 69.08941469 -80 70 C-78.88625 68.9171875 -78.88625 68.9171875 -77.75 67.8125 C-75.30709485 65.31407427 -73.1318953 62.76356798 -71 60 C-71.66 59.67 -72.32 59.34 -73 59 C-68 54 -68 54 -66.375 52.4375 C-64.74765306 50.73618275 -63.37963472 48.90520985 -62 47 C-63.28965176 45.62437146 -64.62689293 44.29233607 -66 43 C-66.66 43 -67.32 43 -68 43 C-67.67 40.36 -67.34 37.72 -67 35 C-66.34 36.32 -65.68 37.64 -65 39 C-64.13619741 37.71475739 -63.28419631 36.42157581 -62.4375 35.125 C-61.96183594 34.40570313 -61.48617187 33.68640625 -60.99609375 32.9453125 C-60.66738281 32.30335937 -60.33867187 31.66140625 -60 31 C-60.33 30.34 -60.66 29.68 -61 29 C-61.66 29.33 -62.32 29.66 -63 30 C-63 31.65 -63 33.3 -63 35 C-63.99 34.34 -64.98 33.68 -66 33 C-66 32.01 -66 31.02 -66 30 C-67.32 30.33 -68.64 30.66 -70 31 C-68.81443578 27.44330734 -68.26591795 27.32580338 -65.0625 25.6875 C-61.77465163 23.95596857 -58.59032682 22.15400893 -55.4375 20.1875 C-39.41761152 10.55072988 -19.06308552 0 0 0 Z " fill="#2A6EEA" transform="translate(210,25)"/>
<path d="M0 0 C0.33 1.32 0.66 2.64 1 4 C4.96 4 8.92 4 13 4 C13 4.33 13 4.66 13 5 C9.7 5.33 6.4 5.66 3 6 C3 7.32 3 8.64 3 10 C1.6875 11.921875 1.6875 11.921875 0 13.75 C-0.556875 14.36359375 -1.11375 14.9771875 -1.6875 15.609375 C-2.120625 16.06828125 -2.55375 16.5271875 -3 17 C-3.99 16.67 -4.98 16.34 -6 16 C-5.95617188 16.56847656 -5.91234375 17.13695312 -5.8671875 17.72265625 C-5.88107077 21.88069451 -6.17105472 24.16957446 -9.1875 27.19140625 C-11.74649048 29.03254039 -14.13083501 30.68916743 -17 32 C-17.99 31.67 -18.98 31.34 -20 31 C-17.33043367 17.96456441 -17.33043367 17.96456441 -13.5 15.1875 C-11 14 -11 14 -9 14 C-8.8453125 12.39125 -8.8453125 12.39125 -8.6875 10.75 C-8.02636654 7.14381749 -7.65761199 5.46075184 -5 3 C-3.68 3 -2.36 3 -1 3 C-0.67 2.01 -0.34 1.02 0 0 Z M-14 21 C-14 21.66 -14 22.32 -14 23 C-13.01 22.67 -12.02 22.34 -11 22 C-11.99 21.67 -12.98 21.34 -14 21 Z " fill="#385BD9" transform="translate(47,181)"/>
<path d="M0 0 C-0.38148486 2.76576527 -0.6834192 3.75490519 -2.9375 5.5 C-3.618125 5.995 -4.29875 6.49 -5 7 C-5.309375 7.66 -5.61875 8.32 -5.9375 9 C-7.38355196 11.72198016 -9.32183558 12.59043978 -12 14 C-12 13.01 -12 12.02 -12 11 C-11.34 11 -10.68 11 -10 11 C-10 10.34 -10 9.68 -10 9 C-11.19625 9.226875 -12.3925 9.45375 -13.625 9.6875 C-17.8709196 10.24657126 -20.33553273 9.29029204 -24 7 C-24 5.35 -24 3.7 -24 2 C-20.75033015 1.66339508 -17.50021572 1.33128921 -14.25 1 C-13.32960938 0.90460938 -12.40921875 0.80921875 -11.4609375 0.7109375 C-10.12675781 0.57558594 -10.12675781 0.57558594 -8.765625 0.4375 C-7.94868164 0.35371094 -7.13173828 0.26992187 -6.29003906 0.18359375 C-4.19917501 0.01596798 -2.09757262 0 0 0 Z M-15 7 C-15 7.33 -15 7.66 -15 8 C-13.35 8 -11.7 8 -10 8 C-10 7.67 -10 7.34 -10 7 C-11.65 7 -13.3 7 -15 7 Z " fill="#2B54DE" transform="translate(123,136)"/>
<path d="M0 0 C0 3.96 0 7.92 0 12 C-1.98 12.99 -1.98 12.99 -4 14 C-5.76727858 17.0334467 -5.76727858 17.0334467 -7 20 C-8.95216435 18.04783565 -9.84826645 16.46800047 -11 14 C-11.99 14 -12.98 14 -14 14 C-14 14.66 -14 15.32 -14 16 C-14.99 16.33 -15.98 16.66 -17 17 C-15.4722133 13.56247993 -13.49818944 10.81046312 -11 8 C-10.34 8 -9.68 8 -9 8 C-7.65668346 6.00669158 -6.32405988 4.00615134 -5 2 C-2 0 -2 0 0 0 Z " fill="#2F59CE" transform="translate(101,89)"/>
<path d="M0 0 C4.62 0 9.24 0 14 0 C12.02 0.99 12.02 0.99 10 2 C10.66 2 11.32 2 12 2 C12.66 2 13.32 2 14 2 C13.36328125 3.88671875 13.36328125 3.88671875 12 6 C9.35546875 7.08203125 9.35546875 7.08203125 6.1875 7.8125 C4.63095703 8.19341797 4.63095703 8.19341797 3.04296875 8.58203125 C0.01409348 8.99806418 -2.07162875 8.79569422 -5 8 C-4.33333333 6 -3.66666667 4 -3 2 C-2.01 2 -1.02 2 0 2 C0 1.34 0 0.68 0 0 Z " fill="#335AD2" transform="translate(116,126)"/>
<path d="M0 0 C0.66 0.99 1.32 1.98 2 3 C2.845625 2.690625 3.69125 2.38125 4.5625 2.0625 C8.0497854 0.98461179 11.38177535 0.43418696 15 0 C5.34482759 11.82758621 5.34482759 11.82758621 -1 15 C-0.34 12.69 0.32 10.38 1 8 C0.34 7.67 -0.32 7.34 -1 7 C-1.04254356 5.00045254 -1.04080783 2.99958364 -1 1 C-0.67 0.67 -0.34 0.34 0 0 Z " fill="#3061D8" transform="translate(147,101)"/>
<path d="M0 0 C0.268125 0.598125 0.53625 1.19625 0.8125 1.8125 C1.8411558 4.03187094 1.8411558 4.03187094 3.55859375 5.2890625 C5.6007992 7.71314376 5.33311953 9.44136146 5.25 12.5625 C5.22679688 14.01849609 5.22679688 14.01849609 5.203125 15.50390625 C5 18 5 18 4 20 C0.9375 20.625 0.9375 20.625 -2 21 C-1.855625 20.32453125 -1.71125 19.6490625 -1.5625 18.953125 C-1.376875 18.06109375 -1.19125 17.1690625 -1 16.25 C-0.7215625 14.92742187 -0.7215625 14.92742187 -0.4375 13.578125 C0.11153675 10.77856035 0.11153675 10.77856035 0 7 C-0.66 6.67 -1.32 6.34 -2 6 C-2 4.35 -2 2.7 -2 1 C-1.34 0.67 -0.68 0.34 0 0 Z " fill="#234AE4" transform="translate(77,126)"/>
<path d="M0 0 C0 3 0 3 -1.5625 4.875 C-3.30674044 6.95721633 -3.30674044 6.95721633 -2.6875 9.75 C-2.3471875 10.86375 -2.3471875 10.86375 -2 12 C-4.49064888 12.68707555 -6.37886292 13 -9 13 C-10.67099977 13.31088368 -12.33871537 13.64080332 -14 14 C-14.33 13.01 -14.66 12.02 -15 11 C-14.01 10.67 -13.02 10.34 -12 10 C-11.67 9.34 -11.34 8.68 -11 8 C-10.39671875 7.86722656 -9.7934375 7.73445313 -9.171875 7.59765625 C-6.38264264 6.83011569 -5.22294776 5.52427167 -3.25 3.4375 C-2.63640625 2.79683594 -2.0228125 2.15617187 -1.390625 1.49609375 C-0.93171875 1.00238281 -0.4728125 0.50867188 0 0 Z " fill="#2C57D7" transform="translate(107,109)"/>
<path d="M0 0 C0.33 0.66 0.66 1.32 1 2 C-4.12041632 9.51226611 -9.30094181 16.90824592 -15 24 C-15.33 23.01 -15.66 22.02 -16 21 C-15.505 20.360625 -15.01 19.72125 -14.5 19.0625 C-12.71884554 17.11481756 -12.71884554 17.11481756 -13.3125 14.75 C-13.6528125 13.88375 -13.6528125 13.88375 -14 13 C-11 13 -11 13 -9 14 C-9 13.01 -9 12.02 -9 11 C-8.34 11 -7.68 11 -7 11 C-7 10.34 -7 9.68 -7 9 C-6.34 9 -5.68 9 -5 9 C-4.9175 8.071875 -4.835 7.14375 -4.75 6.1875 C-4 3 -4 3 -1.9375 1.125 C-1.298125 0.75375 -0.65875 0.3825 0 0 Z " fill="#386CCB" transform="translate(194,61)"/>
<path d="M0 0 C0.33 0.66 0.66 1.32 1 2 C-0.04831478 5.14494435 -0.70637166 5.79132085 -3 8 C-3.61875 8.845625 -4.2375 9.69125 -4.875 10.5625 C-7.1477044 13.16942563 -8.73609235 14.00269488 -12 15 C-11.690625 14.4225 -11.38125 13.845 -11.0625 13.25 C-9.92256867 11.07045276 -9.92256867 11.07045276 -9.5625 8.8125 C-9.376875 8.214375 -9.19125 7.61625 -9 7 C-8.01 6.67 -7.02 6.34 -6 6 C-5.67 4.35 -5.34 2.7 -5 1 C-3.35 0.67 -1.7 0.34 0 0 Z " fill="#2B53D4" transform="translate(94,123)"/>
<path d="M0 0 C0.26919588 4.72509614 -0.50770269 7.97885914 -2.375 12.3125 C-2.81585938 13.36050781 -3.25671875 14.40851562 -3.7109375 15.48828125 C-5 18 -5 18 -7 19 C-6.01 15.04 -5.02 11.08 -4 7 C-3.34 7 -2.68 7 -2 7 C-2.33 5.68 -2.66 4.36 -3 3 C-6.3 3 -9.6 3 -13 3 C-13 2.67 -13 2.34 -13 2 C-11.39658445 1.66307215 -9.79223445 1.33058907 -8.1875 1 C-7.29417969 0.814375 -6.40085938 0.62875 -5.48046875 0.4375 C-3 0 -3 0 0 0 Z " fill="#4073CD" transform="translate(210,25)"/>
<path d="M0 0 C0.99 0.33 1.98 0.66 3 1 C1.64389915 4.12375469 0.20543984 5.9310969 -2.4375 8.0625 C-4.24483117 9.53412819 -5.95039135 10.94764917 -7.5546875 12.640625 C-9.53020868 14.49868276 -11.36396068 14.64377847 -14 15 C-12.71111971 12.1248055 -11.46733017 9.9928436 -9 8 C-8.360625 7.87625 -7.72125 7.7525 -7.0625 7.625 C-3.95645018 6.68377278 -2.82910012 4.58596913 -1 2 C-0.67 1.34 -0.34 0.68 0 0 Z " fill="#3566D4" transform="translate(133,81)"/>
<path d="M0 0 C0.99 0.66 1.98 1.32 3 2 C1.08864719 6.11675989 -0.45627493 9.28198834 -4.6875 11.25 C-5.450625 11.4975 -6.21375 11.745 -7 12 C-6.34 10.35 -5.68 8.7 -5 7 C-5.66 6.67 -6.32 6.34 -7 6 C-2.25 1.125 -2.25 1.125 0 0 Z " fill="#2962DC" transform="translate(146,69)"/>
<path d="M0 0 C0 1.32 0 2.64 0 4 C-0.66 4 -1.32 4 -2 4 C-2.33 5.98 -2.66 7.96 -3 10 C-5.46735884 8.76632058 -6.3608576 7.1855232 -8 5 C-8.66 4.67 -9.32 4.34 -10 4 C-6.87839899 0.56623888 -4.64008112 -1.54669371 0 0 Z " fill="#2F79EA" transform="translate(208,28)"/>
<path d="M0 0 C2.31 0 4.62 0 7 0 C6.54625 0.4125 6.0925 0.825 5.625 1.25 C3.9119597 2.90196931 3.9119597 2.90196931 3.125 5 C1.61545547 7.68363472 -0.31920874 8.58905723 -3 10 C-3 9.01 -3 8.02 -3 7 C-2.34 7 -1.68 7 -1 7 C-1 6.34 -1 5.68 -1 5 C-2.98 5 -4.96 5 -7 5 C-6.67 4.01 -6.34 3.02 -6 2 C-4.02 2 -2.04 2 0 2 C0 1.34 0 0.68 0 0 Z M-6 3 C-6 3.33 -6 3.66 -6 4 C-4.35 4 -2.7 4 -1 4 C-1 3.67 -1 3.34 -1 3 C-2.65 3 -4.3 3 -6 3 Z " fill="#385DCC" transform="translate(114,140)"/>
<path d="M0 0 C0.33 0.99 0.66 1.98 1 3 C1.66 3 2.32 3 3 3 C3 3.66 3 4.32 3 5 C3.99 4.67 4.98 4.34 6 4 C6 4.66 6 5.32 6 6 C4.35 6 2.7 6 1 6 C1.7763932 9.0745356 1.7763932 9.0745356 4 11 C1.625 12.5625 1.625 12.5625 -1 14 C-1.66 13.67 -2.32 13.34 -3 13 C-2.68817931 11.58318366 -2.37551263 10.16655349 -2.0625 8.75 C-1.88847656 7.96109375 -1.71445312 7.1721875 -1.53515625 6.359375 C-1.052444 4.23121297 -0.53836822 2.11467158 0 0 Z " fill="#3958D0" transform="translate(30,199)"/>
<path d="M0 0 C0.66 0.33 1.32 0.66 2 1 C-0.41477568 2.62787116 -2.83170438 4.25237281 -5.25 5.875 C-5.93191406 6.33519531 -6.61382812 6.79539063 -7.31640625 7.26953125 C-7.98027344 7.71425781 -8.64414063 8.15898437 -9.328125 8.6171875 C-9.9355957 9.02565918 -10.54306641 9.43413086 -11.16894531 9.85498047 C-14.28808481 11.80548237 -16.25748913 13 -20 13 C-20 12.34 -20 11.68 -20 11 C-13.375 8.125 -13.375 8.125 -10 7 C-10 6.34 -10 5.68 -10 5 C-8.68 5 -7.36 5 -6 5 C-6 4.34 -6 3.68 -6 3 C-4.03533587 1.93224776 -2.03144641 0.93446535 0 0 Z " fill="#3550C1" transform="translate(82,171)"/>
<path d="M0 0 C0.75 1.5625 0.75 1.5625 1 4 C-0.13084437 6.50286409 -1.52139516 8.67007722 -3 11 C-2.34 11.33 -1.68 11.66 -1 12 C-1.61875 12.061875 -2.2375 12.12375 -2.875 12.1875 C-5.2501999 12.80875315 -5.2501999 12.80875315 -6.0625 15.375 C-6.371875 16.24125 -6.68125 17.1075 -7 18 C-8.625 19.8125 -8.625 19.8125 -10 21 C-9.41681372 16.6620527 -7.82533957 13.6587185 -5.5625 9.9375 C-3.58840286 6.6693183 -1.64517074 3.44741808 0 0 Z " fill="#2B4ED2" transform="translate(65,131)"/>
<path d="M0 0 C-5.28 4.29 -10.56 8.58 -16 13 C-16.33 12.01 -16.66 11.02 -17 10 C-15.87926138 9.16094435 -14.75325453 8.32892169 -13.625 7.5 C-12.99851562 7.0359375 -12.37203125 6.571875 -11.7265625 6.09375 C-10 5 -10 5 -8 5 C-7.9175 4.38125 -7.835 3.7625 -7.75 3.125 C-7 1 -7 1 -5.125 -0.3125 C-3 -1 -3 -1 0 0 Z " fill="#3351C5" transform="translate(111,151)"/>
<path d="M0 0 C0 0.99 0 1.98 0 3 C-8.42857143 5.42857143 -8.42857143 5.42857143 -13 4 C-12.67 3.01 -12.34 2.02 -12 1 C-6.06 0.505 -6.06 0.505 0 0 Z " fill="#2C51D1" transform="translate(124,130)"/>
<path d="M0 0 C-0.33 1.32 -0.66 2.64 -1 4 C-1.33 3.34 -1.66 2.68 -2 2 C-2.68964844 2.144375 -3.37929687 2.28875 -4.08984375 2.4375 C-10.1880192 3.64207787 -15.78763445 4.20368412 -22 4 C-22 3.34 -22 2.68 -22 2 C-18.79430969 1.17272508 -15.85131647 0.95555653 -12.5625 1 C-8.29225437 1.05693661 -4.21589152 0 0 0 Z " fill="#3862E4" transform="translate(125,134)"/>
<path d="M0 0 C0.66 0.99 1.32 1.98 2 3 C-2.105466 6.97185616 -5.02968261 9.70876501 -11 10 C-11 9.34 -11 8.68 -11 8 C-10.21625 7.938125 -9.4325 7.87625 -8.625 7.8125 C-7.75875 7.544375 -6.8925 7.27625 -6 7 C-4.62533375 4.52363988 -4.62533375 4.52363988 -4 2 C-2.68 2.33 -1.36 2.66 0 3 C0 2.01 0 1.02 0 0 Z " fill="#345ACF" transform="translate(141,116)"/>
<path d="M0 0 C0.66 0 1.32 0 2 0 C1.67 1.98 1.34 3.96 1 6 C0.34 6 -0.32 6 -1 6 C-0.67 7.32 -0.34 8.64 0 10 C-1.98 10.99 -1.98 10.99 -4 12 C-4 10.68 -4 9.36 -4 8 C-4.66 7.67 -5.32 7.34 -6 7 C-5.04882866 5.8274869 -4.08882991 4.66212985 -3.125 3.5 C-2.59132813 2.8503125 -2.05765625 2.200625 -1.5078125 1.53125 C-0.76144531 0.77328125 -0.76144531 0.77328125 0 0 Z " fill="#2550E6" transform="translate(105,81)"/>
<path d="M0 0 C0.33 1.32 0.66 2.64 1 4 C4.96 4 8.92 4 13 4 C13 4.33 13 4.66 13 5 C3.595 5.495 3.595 5.495 -6 6 C-6 6.99 -6 7.98 -6 9 C-6.66 9 -7.32 9 -8 9 C-7.3125 6.5625 -7.3125 6.5625 -6 4 C-3.375 3.1875 -3.375 3.1875 -1 3 C-0.67 2.01 -0.34 1.02 0 0 Z " fill="#3F59C6" transform="translate(47,181)"/>
<path d="M0 0 C0.66 0.33 1.32 0.66 2 1 C0.625 3 0.625 3 -1 5 C-1.66 5 -2.32 5 -3 5 C-3.33 7.31 -3.66 9.62 -4 12 C-7 12 -7 12 -10 11 C-6.7 7.37 -3.4 3.74 0 0 Z " fill="#2C5AD9" transform="translate(118,97)"/>
<path d="M0 0 C0 0.66 0 1.32 0 2 C-2.96187272 4.17204 -5.50685991 5.83561997 -9 7 C-9.66 6.67 -10.32 6.34 -11 6 C-11 6.66 -11 7.32 -11 8 C-12.65 8 -14.3 8 -16 8 C-13.10414095 5.70351643 -10.1827969 3.95652443 -6.875 2.3125 C-5.57175781 1.65701172 -5.57175781 1.65701172 -4.2421875 0.98828125 C-2 0 -2 0 0 0 Z " fill="#2E6BDC" transform="translate(178,34)"/>
<path d="M0 0 C0 1.66666667 0 3.33333333 0 5 C-0.99 5.495 -0.99 5.495 -2 6 C-2 7.65 -2 9.3 -2 11 C-2.99 10.34 -3.98 9.68 -5 9 C-5 8.01 -5 7.02 -5 6 C-6.32 6.33 -7.64 6.66 -9 7 C-8 4 -8 4 -6.15234375 2.83203125 C-5.42144531 2.49558594 -4.69054687 2.15914062 -3.9375 1.8125 C-3.20402344 1.46832031 -2.47054687 1.12414063 -1.71484375 0.76953125 C-1.14894531 0.51558594 -0.58304688 0.26164062 0 0 Z " fill="#3870D1" transform="translate(149,49)"/>
<path d="M0 0 C0.33 0 0.66 0 1 0 C0.85769192 1.41702513 0.71099254 2.8336096 0.5625 4.25 C0.48128906 5.03890625 0.40007812 5.8278125 0.31640625 6.640625 C0.02365007 8.82364639 -0.42064419 10.8773182 -1 13 C-1.66 13 -2.32 13 -3 13 C-3 11.68 -3 10.36 -3 9 C-4.32 9.33 -5.64 9.66 -7 10 C-6.21625 9.278125 -5.4325 8.55625 -4.625 7.8125 C-2.15587562 5.16700959 -1.06739722 3.39626389 0 0 Z " fill="#2D4EBA" transform="translate(76,115)"/>
<path d="M0 0 C0.66 0 1.32 0 2 0 C2.33 3.3 2.66 6.6 3 10 C2.01 8.68 1.02 7.36 0 6 C-0.99 6 -1.98 6 -3 6 C-3 6.66 -3 7.32 -3 8 C-3.99 8.33 -4.98 8.66 -6 9 C-4.4722133 5.56247993 -2.49818944 2.81046312 0 0 Z " fill="#2C51D5" transform="translate(90,97)"/>
<path d="M0 0 C3.3 0 6.6 0 10 0 C7.9957983 4.0084034 6.50944037 5.41409657 3 8 C3.66 6.35 4.32 4.7 5 3 C3.68 3.33 2.36 3.66 1 4 C0.67 2.68 0.34 1.36 0 0 Z " fill="#3565C0" transform="translate(159,93)"/>
<path d="M0 0 C1.45047396 2.90094791 0.45356803 4.55972596 -0.4375 7.625 C-0.72496094 8.62789062 -1.01242188 9.63078125 -1.30859375 10.6640625 C-1.65083984 11.82035156 -1.65083984 11.82035156 -2 13 C-2.99 13 -3.98 13 -5 13 C-5 11.68 -5 10.36 -5 9 C-4.34 8.67 -3.68 8.34 -3 8 C-3.99 7.01 -4.98 6.02 -6 5 C-5.67 4.01 -5.34 3.02 -5 2 C-5 2.66 -5 3.32 -5 4 C-3.01508358 3.73323796 -3.01508358 3.73323796 -1 3 C-0.67 2.01 -0.34 1.02 0 0 Z " fill="#275EE1" transform="translate(145,52)"/>
<path d="M0 0 C2.9375 0.3125 2.9375 0.3125 4.9375 2.3125 C4.6075 2.9725 4.2775 3.6325 3.9375 4.3125 C0.6375 3.9825 -2.6625 3.6525 -6.0625 3.3125 C-3.0625 0.3125 -3.0625 0.3125 0 0 Z " fill="#305CE8" transform="translate(110.0625,137.6875)"/>
<path d="M0 0 C-0.33 0.99 -0.66 1.98 -1 3 C-4.96 3 -8.92 3 -13 3 C-12 1 -12 1 -9.3125 -0.1875 C-5.76409462 -1.05786358 -3.52047455 -0.83820823 0 0 Z " fill="#3259DF" transform="translate(98,145)"/>
<path d="M0 0 C-0.75 1.9375 -0.75 1.9375 -2 4 C-4.125 4.75 -4.125 4.75 -6 5 C-6 4.34 -6 3.68 -6 3 C-7.918125 3.061875 -7.918125 3.061875 -9.875 3.125 C-12.0546875 3.1953125 -12.0546875 3.1953125 -14 3 C-14.66 2.34 -15.32 1.68 -16 1 C-15.11248047 1.01740234 -15.11248047 1.01740234 -14.20703125 1.03515625 C-9.37393845 1.09034654 -4.73153363 0 0 0 Z " fill="#3C5CC6" transform="translate(130,128)"/>
<path d="M0 0 C2 3.75 2 3.75 2 6 C0.02 6 -1.96 6 -4 6 C-3.67 4.35 -3.34 2.7 -3 1 C-2.01 0.67 -1.02 0.34 0 0 Z " fill="#3A58CF" transform="translate(35,196)"/>
<path d="M0 0 C0.99 0.33 1.98 0.66 3 1 C1.93106782 2.03590338 0.84421512 3.05333942 -0.25 4.0625 C-1.15492188 4.91521484 -1.15492188 4.91521484 -2.078125 5.78515625 C-4 7 -4 7 -6.234375 6.68359375 C-6.81703125 6.45800781 -7.3996875 6.23242188 -8 6 C-6.66666667 5 -5.33333333 4 -4 3 C-3.319375 2.4225 -2.63875 1.845 -1.9375 1.25 C-1.298125 0.8375 -0.65875 0.425 0 0 Z " fill="#3867CE" transform="translate(175,85)"/>
<path d="M0 0 C0.33 1.65 0.66 3.3 1 5 C0.236875 4.95875 -0.52625 4.9175 -1.3125 4.875 C-4.22718416 4.77919176 -4.22718416 4.77919176 -7 7 C-4.60526316 0 -4.60526316 0 0 0 Z " fill="#2D4CDA" transform="translate(73,124)"/>
<path d="M0 0 C0.99 0.33 1.98 0.66 3 1 C1.4169423 5.2742558 -1.50568404 7.26531794 -5 10 C-4.39717492 6.62417953 -3.12674568 4.65843209 -1 2 C-0.67 1.34 -0.34 0.68 0 0 Z " fill="#2D5DD0" transform="translate(133,81)"/>
<path d="M0 0 C0 3 0 3 -1.0625 5.125 C-3.80257064 7.77668126 -6.289257 7.71994392 -10 8 C-6.66666667 5.33333333 -3.33333333 2.66666667 0 0 Z " fill="#3069D3" transform="translate(138,55)"/>
<path d="M0 0 C0.99 0 1.98 0 3 0 C2.34 1.98 1.68 3.96 1 6 C-0.32 5.67 -1.64 5.34 -3 5 C-1.125 1.125 -1.125 1.125 0 0 Z " fill="#3171DF" transform="translate(195,55)"/>
<path d="M0 0 C-4 4 -4 4 -7 5 C-7 3.68 -7 2.36 -7 1 C-3.375 -1.125 -3.375 -1.125 0 0 Z " fill="#2365E0" transform="translate(163,60)"/>
<path d="M0 0 C-0.33 1.32 -0.66 2.64 -1 4 C-1.33 3.34 -1.66 2.68 -2 2 C-2.515625 2.165 -3.03125 2.33 -3.5625 2.5 C-6.73363876 3.15049 -9.77218334 3.0620734 -13 3 C-13 2.67 -13 2.34 -13 2 C-11.20873548 1.66451233 -9.41697413 1.33167645 -7.625 1 C-6.62726563 0.814375 -5.62953125 0.62875 -4.6015625 0.4375 C-2 0 -2 0 0 0 Z " fill="#3F5FBE" transform="translate(125,134)"/>
<path d="M0 0 C-1.28524261 0.86380259 -2.57842419 1.71580369 -3.875 2.5625 C-4.59429687 3.03816406 -5.31359375 3.51382812 -6.0546875 4.00390625 C-6.69664062 4.33261719 -7.33859375 4.66132812 -8 5 C-8.66 4.67 -9.32 4.34 -10 4 C-6.87839899 0.56623888 -4.64008112 -1.54669371 0 0 Z " fill="#3A88F0" transform="translate(208,28)"/>
<path d="M0 0 C1.32 0.66 2.64 1.32 4 2 C1.625 3.5625 1.625 3.5625 -1 5 C-1.66 4.67 -2.32 4.34 -3 4 C-3 3.34 -3 2.68 -3 2 C-2.01 1.34 -1.02 0.68 0 0 Z " fill="#5A77C4" transform="translate(30,208)"/>
<path d="M0 0 C1.98 0.99 3.96 1.98 6 3 C6 3.33 6 3.66 6 4 C3.36 4.33 0.72 4.66 -2 5 C-2 4.34 -2 3.68 -2 3 C-1.34 3 -0.68 3 0 3 C0 2.01 0 1.02 0 0 Z " fill="#284BDD" transform="translate(38,192)"/>
<path d="M0 0 C0.99 0 1.98 0 3 0 C1.54744301 3.82946843 -0.42895561 5.12050295 -4 7 C-4 6.01 -4 5.02 -4 4 C-3.34 4 -2.68 4 -2 4 C-2 3.34 -2 2.68 -2 2 C-1.34 2 -0.68 2 0 2 C0 1.34 0 0.68 0 0 Z " fill="#3C59C2" transform="translate(115,143)"/>
<path d="M0 0 C-0.66 0 -1.32 0 -2 0 C-2 0.66 -2 1.32 -2 2 C-4.31 2 -6.62 2 -9 2 C-9.33 1.34 -9.66 0.68 -10 0 C-6.33694766 -0.74926071 -3.57644848 -1.2380014 0 0 Z " fill="#2F63D2" transform="translate(152,96)"/>
<path d="M0 0 C0.99 0.33 1.98 0.66 3 1 C0.03 3.475 0.03 3.475 -3 6 C-3.33 4.68 -3.66 3.36 -4 2 C-3.34 1.67 -2.68 1.34 -2 1 C-1.34 1.33 -0.68 1.66 0 2 C0 1.34 0 0.68 0 0 Z " fill="#324ECA" transform="translate(90,164)"/>
<path d="M0 0 C0.99 0 1.98 0 3 0 C3 1.98 3 3.96 3 6 C1.68 5.34 0.36 4.68 -1 4 C-0.67 2.68 -0.34 1.36 0 0 Z " fill="#285FDA" transform="translate(119,69)"/>
<path d="M0 0 C1.98 0.495 1.98 0.495 4 1 C3.67 1.99 3.34 2.98 3 4 C1.68 3.67 0.36 3.34 -1 3 C-0.67 2.01 -0.34 1.02 0 0 Z " fill="#2D46AE" transform="translate(20,229)"/>
</svg>
